<?xml version="1.0" standalone="no"?>
<!DOCTYPE svg PUBLIC "-//W3C//DTD SVG 20010904//EN"
 "http://www.w3.org/TR/2001/REC-SVG-20010904/DTD/svg10.dtd">
<svg version="1.0" xmlns="http://www.w3.org/2000/svg"
 width="1200.000000pt" height="630.000000pt" viewBox="0 0 1200.000000 630.000000"
 preserveAspectRatio="xMidYMid meet">
<metadata>
Created by potrace 1.15, written by Peter Selinger 2001-2017
</metadata>
<g transform="translate(0.000000,630.000000) scale(0.100000,-0.100000)"
fill="#000000" stroke="none">
<path d="M4432 5079 c-11 -11 -47 -27 -81 -35 -34 -7 -88 -27 -120 -44 -64
-32 -168 -122 -190 -164 -9 -16 -23 -26 -37 -26 -35 0 -60 -43 -45 -77 16 -36
-5 -130 -36 -160 -29 -28 -29 -58 0 -87 30 -30 52 -124 37 -157 -16 -36 2 -76
38 -86 17 -4 46 -27 65 -51 78 -93 183 -158 295 -184 31 -7 65 -22 78 -35 13
-13 30 -23 39 -23 9 0 26 10 39 23 13 13 47 28 78 35 113 26 241 105 303 190
18 25 41 43 58 46 36 7 55 46 39 81 -16 34 4 122 35 156 29 31 29 63 2 90 -30
30 -53 133 -36 159 10 17 9 25 -3 47 -8 15 -24 30 -36 33 -11 3 -50 37 -87 76
-76 81 -167 135 -267 158 -40 9 -67 22 -77 35 -19 27 -66 27 -91 0z m-91 -115
c-16 -25 -40 -79 -53 -120 l-23 -74 -97 0 c-55 0 -100 4 -103 10 -14 22 57
108 134 160 36 25 137 69 158 70 7 0 1 -19 -16 -46z m119 -51 c0 -71 -1 -73
-25 -73 -14 0 -47 -8 -74 -19 l-49 -18 8 27 c15 51 47 115 74 147 24 28 30 31
47 20 16 -10 19 -23 19 -84z m140 -8 c16 -33 31 -69 35 -81 l5 -21 -62 20
c-35 11 -69 22 -75 23 -9 2 -13 25 -13 70 0 120 50 115 110 -11z m89 70 c50
-24 93 -55 138 -100 90 -90 86 -100 -41 -100 l-98 0 -23 65 c-24 73 -50 127
-73 153 -14 15 -13 17 4 17 11 0 53 -16 93 -35z m-132 -180 c64 -19 143 -88
173 -152 30 -64 32 -160 4 -223 l-20 -45 -15 30 c-15 31 -87 75 -124 75 -15 0
-30 -17 -53 -60 -19 -33 -39 -60 -45 -60 -7 0 -27 27 -45 60 -37 66 -46 70
-108 44 -49 -20 -74 -42 -74 -66 0 -10 -4 -18 -8 -18 -18 0 -35 57 -40 130 -6
99 19 161 90 225 78 70 165 90 265 60z m-327 -59 c0 -2 -11 -23 -24 -47 -14
-24 -30 -65 -37 -91 l-11 -48 -69 0 c-56 0 -73 4 -89 20 -18 18 -19 25 -9 70
9 40 15 51 35 56 14 4 29 15 35 25 8 16 22 19 89 19 44 0 80 -2 80 -4z m659
-15 c6 -10 21 -21 35 -25 19 -5 26 -16 36 -55 11 -45 10 -51 -9 -70 -17 -17
-33 -21 -90 -21 l-69 0 -7 37 c-4 20 -19 60 -33 87 -15 28 -28 54 -30 59 -2 4
33 7 77 7 68 0 82 -3 90 -19z m-720 -258 c7 -27 23 -68 37 -92 13 -24 24 -45
24 -47 0 -2 -35 -4 -79 -4 -60 0 -82 4 -92 16 -7 9 -23 20 -35 24 -15 6 -24
22 -31 59 -9 44 -8 52 11 70 17 17 33 21 87 21 l67 0 11 -47z m779 24 c21 -22
22 -28 11 -75 -8 -39 -15 -52 -28 -52 -10 0 -26 -9 -36 -20 -15 -17 -31 -20
-96 -20 l-78 0 28 54 c16 30 32 73 36 95 l7 41 67 0 c58 0 71 -3 89 -23z
m-539 -103 c31 -53 33 -55 69 -52 33 3 40 8 65 56 31 58 45 62 95 32 27 -17
32 -25 32 -59 0 -32 -5 -43 -29 -61 -93 -66 -221 -67 -323 -3 -34 21 -38 28
-38 63 0 35 5 43 33 60 49 30 62 26 96 -36z m-125 -161 c10 -32 33 -86 52
-121 33 -61 33 -63 12 -57 -75 21 -168 78 -226 139 -87 91 -85 96 41 96 l103
0 18 -57z m601 47 c8 -13 -29 -64 -83 -115 -35 -33 -147 -95 -201 -111 l-25
-6 23 33 c30 45 59 112 72 165 l11 44 99 0 c57 0 100 -4 104 -10z m-482 -49
l57 -16 0 -67 c0 -56 -3 -69 -19 -78 -16 -8 -24 -4 -46 21 -30 36 -51 75 -71
131 -13 37 -13 40 4 33 9 -5 43 -15 75 -24z m231 7 c-12 -42 -53 -123 -77
-152 -20 -25 -26 -27 -45 -17 -19 10 -22 20 -22 80 l0 68 53 12 c28 6 59 16
67 21 24 16 32 12 24 -12z"/>
<path d="M4399 4731 c-34 -35 -39 -91 -13 -147 47 -100 163 -79 193 34 22 79
-26 142 -107 142 -35 0 -49 -6 -73 -29z m134 -33 c22 -27 22 -65 -2 -105 -36
-58 -85 -53 -116 13 -42 89 55 166 118 92z"/>
<path d="M2863 4772 c-67 -24 -118 -64 -154 -120 -30 -47 -54 -139 -46 -178 4
-23 2 -24 -47 -24 -189 -1 -255 -244 -91 -337 40 -22 45 -23 415 -23 344 0
378 2 415 19 171 79 163 323 -14 386 -24 8 -54 15 -66 15 -18 0 -24 7 -30 37
-10 53 -48 123 -87 160 -74 71 -200 99 -295 65z m178 -27 c93 -32 165 -119
176 -214 l6 -51 41 0 c156 -1 244 -182 144 -296 -58 -65 -48 -64 -466 -64
-377 0 -379 0 -412 23 -48 32 -72 82 -67 138 9 103 94 159 202 135 l31 -7 -1
78 c0 69 4 84 31 133 63 113 195 166 315 125z"/>
<path d="M7602 4409 c-71 -35 -72 -41 -72 -354 0 -223 3 -281 15 -304 17 -34
87 -71 133 -71 l32 0 0 -113 c0 -111 7 -137 36 -137 6 0 97 56 203 125 l191
125 198 0 c108 0 214 5 234 10 20 6 50 26 67 46 l31 35 0 284 0 284 -31 35
c-17 20 -47 40 -67 46 -23 6 -211 10 -482 10 -433 0 -446 -1 -488 -21z m999
-48 l29 -29 0 -277 0 -277 -29 -29 -29 -29 -221 0 -220 0 -176 -116 c-98 -63
-183 -118 -191 -121 -12 -4 -14 16 -14 116 l0 121 -61 0 c-54 0 -64 3 -90 29
l-29 29 0 277 0 277 29 29 29 29 472 0 472 0 29 -29z"/>
<path d="M5195 4021 c-51 -23 -101 -79 -114 -128 -7 -23 -11 -157 -11 -330 l0
-293 -175 0 -175 0 0 148 c0 130 -2 151 -20 180 -40 65 4 62 -1012 62 -896 0
-924 -1 -955 -20 -17 -10 -37 -28 -43 -39 -6 -12 -15 -21 -19 -21 -5 0 -73 36
-152 80 -78 45 -148 79 -156 76 -10 -4 -13 -42 -13 -169 l0 -164 -44 -5 c-101
-12 -161 -86 -154 -190 7 -91 59 -147 147 -156 l51 -5 0 -168 c0 -157 1 -169
18 -169 10 0 79 34 153 75 74 41 137 75 141 75 4 0 9 -409 10 -909 3 -878 4
-910 22 -930 l19 -21 -246 0 -247 0 0 354 0 354 60 4 c52 4 66 9 93 36 l32 32
3 310 c4 420 15 402 -252 410 l-169 5 -17 49 c-9 27 -28 59 -44 72 -26 23 -34
24 -179 24 -180 0 -186 -3 -218 -90 l-22 -60 -58 0 -59 0 0 33 c0 50 -25 67
-99 67 -83 0 -101 -11 -101 -59 0 -37 -2 -40 -42 -53 -23 -7 -51 -26 -62 -41
-20 -27 -21 -43 -24 -303 l-3 -274 -164 0 -165 0 0 -435 0 -435 -114 0 c-88 0
-115 -3 -119 -14 -3 -8 -3 -17 0 -20 4 -3 2463 -6 5465 -6 5194 0 5459 1 5456
18 -3 15 -19 17 -138 20 l-135 3 -82 142 -82 142 162 5 c89 3 168 9 176 14 38
25 41 60 41 531 l0 456 35 33 c43 41 47 85 10 121 l-24 25 -709 0 -709 0 -21
-23 c-14 -15 -22 -36 -22 -58 1 -38 14 -60 48 -78 l22 -12 0 -474 0 -474 24
-28 24 -28 166 -5 166 -5 -82 -142 -83 -143 -197 0 -198 0 -2 392 -3 393 -104
3 c-77 2 -107 -1 -113 -10 -4 -7 -8 -185 -8 -395 l0 -383 -65 0 -65 0 -2 253
-3 252 -110 0 -110 0 -3 -252 -2 -253 -65 0 -65 0 -2 377 -3 378 -110 0 -110
0 -3 -377 -2 -378 -65 0 -65 0 0 233 c0 168 -3 236 -12 245 -16 16 -190 16
-206 0 -9 -9 -12 -77 -12 -245 l0 -233 -121 0 -120 0 35 34 c43 40 77 112 79
169 l2 42 -240 5 -240 5 -85 562 c-48 317 -90 567 -97 574 -10 10 -14 8 -19
-6 -4 -10 31 -269 77 -576 l85 -559 -1888 0 c-1860 0 -1888 0 -1888 19 0 11
63 434 139 939 89 583 145 932 156 952 9 17 30 40 48 50 30 19 52 20 340 20
l307 0 0 -50 0 -49 -263 -3 -264 -3 -36 -28 c-21 -15 -44 -42 -53 -58 -15 -31
-234 -1440 -234 -1512 0 -71 48 -142 113 -166 40 -15 3224 -15 3264 0 65 24
113 95 113 166 0 21 -14 136 -32 257 -30 206 -42 246 -65 222 -3 -3 9 -111 27
-239 19 -139 30 -248 26 -269 -4 -20 -21 -48 -42 -69 l-35 -34 -365 -3 -364
-3 0 851 0 850 248 0 c227 0 250 -2 279 -20 46 -28 63 -59 74 -137 15 -101 18
-113 34 -113 23 0 24 11 9 103 -17 105 -32 136 -81 174 l-36 28 -264 3 -263 3
0 49 0 50 308 0 c287 0 309 -1 339 -20 44 -27 63 -67 79 -178 16 -104 19 -112
40 -112 18 0 18 8 -1 126 -20 121 -42 166 -98 199 l-44 25 -311 0 -312 0 0
293 c0 173 -4 307 -11 330 -13 49 -63 105 -114 128 -38 17 -85 19 -770 19
-685 0 -732 -2 -770 -19z m1512 -32 c38 -14 83 -57 99 -96 12 -27 14 -241 14
-1268 l0 -1235 -855 0 -855 0 0 1234 c0 848 3 1244 11 1263 14 37 57 82 94 99
39 17 1446 21 1492 3z m-4010 -472 l203 -112 0 -181 0 -181 -247 -138 c-137
-76 -251 -140 -255 -142 -5 -2 -8 205 -8 462 l0 465 53 -30 c28 -16 143 -81
254 -143z m1960 80 c28 -27 28 -29 31 -177 l3 -150 -124 3 c-125 2 -125 2
-169 -28 -51 -35 -84 -97 -91 -170 -3 -27 -11 -92 -18 -142 l-13 -93 -503 0
-504 0 3 88 3 87 40 6 c52 7 82 27 94 61 9 25 15 28 51 28 34 0 48 6 76 34 28
28 34 41 34 78 0 69 -50 118 -120 118 -22 0 -33 6 -39 23 -5 12 -19 31 -31 42
-20 18 -40 20 -240 25 l-217 5 -107 59 c-58 33 -106 65 -106 71 0 13 38 50 60
58 8 3 430 5 937 4 l923 -2 27 -28z m-1307 -227 c18 -18 20 -33 20 -147 0
-104 -3 -130 -17 -145 -14 -16 -35 -18 -210 -18 l-193 0 0 165 0 165 190 0
c177 0 191 -1 210 -20z m-1000 -150 l0 -130 -34 0 c-110 0 -166 149 -85 230
25 24 39 30 75 30 l44 0 0 -130z m2720 -980 l0 -851 -365 3 -365 3 -36 36
c-28 28 -37 47 -41 80 -6 64 210 1483 232 1515 9 14 30 34 48 44 29 18 52 20
280 20 l247 0 0 -850z m-2050 691 l0 -90 -42 -3 c-30 -2 -43 -8 -43 -18 0 -10
13 -16 43 -18 35 -3 42 -7 42 -24 0 -41 39 -105 74 -122 42 -20 69 -20 106 -1
44 23 70 62 70 106 l0 39 501 0 c472 0 500 -1 496 -17 -3 -10 -11 -55 -17
-100 l-12 -83 -654 0 c-575 0 -654 -2 -654 -15 0 -13 79 -15 650 -15 600 0
650 -1 650 -17 0 -16 -17 -127 -26 -170 l-4 -23 -635 0 c-558 0 -635 -2 -635
-15 0 -13 77 -15 633 -15 l634 0 -13 -87 c-8 -49 -14 -94 -14 -100 0 -10 -134
-13 -617 -15 -542 -3 -618 -5 -618 -18 0 -13 76 -15 613 -18 336 -1 612 -5
612 -10 0 -10 -19 -131 -26 -164 l-6 -28 -599 0 c-526 0 -599 -2 -599 -15 0
-13 73 -15 595 -15 l595 0 -1 -27 c0 -16 -6 -62 -12 -103 l-12 -75 -582 -3
c-509 -2 -583 -4 -583 -17 0 -13 73 -15 581 -15 l581 0 -6 -27 c-3 -16 -10
-61 -16 -100 l-12 -73 -564 0 c-495 0 -564 -2 -564 -15 0 -13 69 -15 560 -15
l560 0 -1 -27 c0 -16 -3 -46 -7 -68 l-7 -40 -240 -5 -240 -5 2 -42 c2 -57 36
-129 79 -169 l35 -34 -451 0 -452 0 -34 34 -34 34 0 908 0 909 118 67 c92 52
126 67 160 67 l42 1 0 -89z m210 -60 l0 -150 -26 -20 c-40 -31 -87 -28 -118
10 -25 30 -26 35 -26 170 l0 139 85 0 85 0 0 -149z m-1323 -269 c10 -6 43 -82
43 -98 0 -2 -92 -4 -205 -4 l-204 0 15 42 c24 69 20 68 188 68 83 0 156 -4
163 -8z m437 -168 l26 -27 0 -302 c0 -291 -1 -303 -21 -329 l-20 -26 -594 0
-594 0 -20 26 c-20 26 -21 38 -21 331 l0 304 25 24 24 25 584 0 584 0 27 -26z
m9038 -30 c11 -23 10 -29 -11 -45 -22 -18 -52 -19 -691 -19 -410 0 -679 4
-694 10 -28 10 -35 47 -14 68 9 9 179 12 705 12 l693 0 12 -26z m-72 -573 c0
-414 -2 -471 -16 -485 -14 -14 -83 -16 -615 -16 -395 0 -607 4 -620 10 -18 10
-19 26 -19 485 l0 475 635 0 635 0 0 -469z m-10250 -16 c0 -29 30 -75 60 -90
25 -13 103 -15 545 -15 l515 0 0 -237 0 -237 -159 158 c-111 110 -164 156
-173 150 -7 -4 -107 -85 -223 -179 -115 -94 -216 -175 -222 -179 -8 -4 -71 42
-169 124 l-156 130 -31 -22 c-18 -12 -85 -62 -149 -110 -64 -48 -120 -88 -123
-88 -3 0 -5 137 -5 305 l0 305 145 0 c124 0 145 -2 145 -15z m8700 -435 l0
-370 -65 0 -65 0 0 370 0 370 65 0 65 0 0 -370z m-720 -15 l0 -355 -65 0 -65
0 0 355 0 355 65 0 65 0 0 -355z m-7013 -27 l163 -163 0 -92 0 -93 -712 2
-713 3 -3 82 -3 83 156 115 c85 63 158 115 161 115 4 0 73 -55 153 -123 80
-68 151 -126 157 -130 7 -4 108 73 235 177 123 102 228 185 234 185 5 1 83
-72 172 -161z m7373 -98 l0 -230 -70 0 -70 0 0 230 0 230 70 0 70 0 0 -230z
m-710 -15 l0 -215 -75 0 -75 0 0 215 0 215 75 0 75 0 0 -215z m1820 60 c0 -3
-37 -68 -81 -145 l-82 -140 -43 0 c-24 0 -44 3 -44 7 0 6 12 29 107 191 l54
92 45 0 c24 0 44 -2 44 -5z m355 -132 c44 -75 82 -140 83 -145 2 -4 -121 -8
-273 -8 -152 0 -275 4 -273 8 2 4 39 70 83 145 l80 137 110 0 110 0 80 -137z
m140 0 c44 -75 82 -141 84 -146 1 -4 -19 -7 -45 -5 l-48 3 -64 110 c-35 61
-73 125 -84 143 l-20 32 49 0 49 0 79 -137z m-2678 20 c-10 -56 -55 -113 -116
-145 l-53 -28 -2193 0 -2193 0 -53 28 c-61 32 -106 89 -116 145 l-6 37 2368 0
2368 0 -6 -37z"/>
<path d="M5477 3123 c-4 -3 -7 -233 -7 -509 l0 -503 -52 -3 c-41 -2 -54 -7
-56 -20 -3 -15 5 -18 52 -18 l56 0 0 -70 c0 -56 3 -72 16 -77 24 -9 34 15 34
85 l0 62 526 0 c495 0 525 1 522 18 -3 16 -37 17 -526 20 l-522 2 0 494 c0
272 -3 501 -6 510 -6 16 -26 21 -37 9z"/>
<path d="M1622 2350 c-92 -47 -141 -121 -150 -226 -6 -77 16 -146 63 -202 106
-123 308 -125 417 -4 51 57 70 105 71 182 1 108 -47 192 -142 248 -34 20 -61
26 -120 30 -70 3 -81 1 -139 -28z m252 -44 c125 -73 153 -246 58 -356 -146
-171 -422 -73 -422 150 0 192 198 304 364 206z"/>
<path d="M1672 2230 c-92 -56 -96 -195 -7 -250 43 -27 119 -27 163 0 34 21 72
87 72 125 0 38 -38 104 -72 125 -43 26 -113 26 -156 0z m128 -25 c42 -21 60
-53 60 -103 0 -37 -6 -50 -34 -78 -39 -39 -86 -45 -137 -18 -29 15 -59 65 -59
100 0 33 32 83 63 98 40 20 70 20 107 1z"/>
<path d="M11083 2208 c-6 -7 -16 -37 -23 -66 -9 -38 -20 -58 -41 -73 l-29 -21
-59 54 c-121 112 -286 135 -436 61 -71 -35 -148 -114 -182 -187 -25 -54 -28
-72 -28 -161 0 -89 3 -107 28 -160 94 -201 336 -286 536 -188 183 89 269 329
183 509 -16 35 -16 36 8 55 25 20 52 21 138 3 28 -6 32 -4 32 14 0 21 -18 32
-51 32 -28 0 -23 12 16 38 35 22 44 45 24 57 -5 4 -29 -5 -51 -20 l-41 -27 6
35 c6 40 -12 67 -30 45z m-348 -49 c33 -6 77 -20 98 -30 39 -21 117 -86 117
-99 0 -4 -18 -19 -40 -34 l-41 -27 -32 27 c-71 60 -153 78 -241 52 -59 -18
-138 -99 -155 -161 -28 -98 10 -209 90 -267 135 -97 327 -28 375 135 16 55 16
65 2 120 -17 66 -19 62 45 100 l27 16 18 -38 c12 -28 17 -65 17 -138 0 -95 -2
-103 -34 -163 -63 -116 -155 -173 -291 -180 -70 -3 -95 0 -142 18 -79 29 -150
96 -190 178 -30 60 -33 75 -33 152 1 72 5 94 28 142 59 121 164 190 313 207 6
0 37 -4 69 -10z m-2 -150 c21 -5 52 -23 69 -38 l32 -28 -47 -27 c-37 -22 -50
-25 -66 -17 -37 20 -81 13 -112 -18 -49 -49 -30 -129 34 -150 62 -21 121 22
121 85 0 31 6 40 43 65 l42 29 12 -22 c22 -39 16 -118 -11 -168 -81 -146 -292
-137 -361 15 -27 58 -24 113 9 176 22 43 38 59 81 81 57 30 94 34 154 17z"/>
<path d="M921 1714 c-30 -21 -51 -71 -44 -107 3 -15 19 -38 35 -52 75 -63 188
9 158 101 -22 66 -96 94 -149 58z"/>
<path d="M10350 3674 c-63 -19 -270 -77 -460 -130 -467 -129 -450 -124 -450
-138 0 -7 48 -45 108 -85 l107 -71 35 -156 c19 -86 39 -163 45 -171 9 -12 26
0 97 66 l86 81 118 -80 c65 -44 122 -79 127 -77 8 2 347 771 347 788 0 15 -40
8 -160 -27z m64 -116 c-179 -418 -258 -598 -264 -598 -13 0 -315 211 -315 221
0 7 602 459 612 459 1 0 -14 -37 -33 -82z m-119 53 c-6 -5 -148 -81 -316 -170
l-306 -162 -88 60 -87 60 53 15 c227 66 727 205 739 205 8 1 10 -2 5 -8z m-76
-99 c-44 -34 -404 -298 -415 -305 -6 -3 -30 7 -53 22 l-43 29 83 45 c372 201
498 263 428 209z"/>
<path d="M8452 3108 c-9 -9 -12 -92 -12 -313 0 -221 3 -304 12 -313 9 -9 124
-12 454 -12 l443 0 15 22 c14 19 16 66 16 306 0 176 -4 291 -10 303 -10 18
-26 19 -458 19 -335 0 -451 -3 -460 -12z m673 -209 c-105 -104 -197 -194 -205
-199 -12 -6 -63 37 -213 182 -108 104 -197 194 -197 199 0 5 167 9 402 9 l403
0 -190 -191z m215 -106 l0 -268 -135 135 -135 135 132 132 c73 73 134 133 135
133 2 0 3 -120 3 -267z m-725 127 l130 -131 -130 -124 c-71 -68 -133 -124
-137 -125 -5 0 -8 115 -8 255 0 140 3 255 8 255 4 0 66 -59 137 -130z m299
-418 c-219 -1 -400 1 -403 4 -7 7 246 254 259 254 5 0 36 -25 68 -55 33 -30
63 -55 67 -55 4 0 37 27 73 60 l67 60 133 -132 132 -133 -396 -3z"/>
<path d="M9593 2154 c-8 -23 1 -27 74 -33 l67 -6 -144 -119 c-80 -65 -152
-125 -162 -133 -13 -12 -23 -12 -57 -2 -34 10 -47 10 -80 -3 l-40 -16 -85 60
-86 59 0 48 c0 80 -60 125 -138 105 -49 -13 -77 -53 -77 -114 l0 -49 -86 -65
-86 -65 -38 14 c-66 22 -124 -7 -145 -71 -16 -47 11 -102 61 -127 31 -15 41
-16 74 -5 52 18 78 55 77 112 l-1 46 90 70 c89 69 91 70 119 55 37 -19 54 -19
95 1 l34 16 83 -59 c83 -59 83 -59 88 -111 9 -88 75 -131 152 -99 43 18 73 74
64 122 -6 31 -3 36 71 97 43 35 115 95 161 132 l83 69 -3 -74 c-2 -60 0 -74
12 -74 17 0 26 43 31 145 l4 65 -50 6 c-135 18 -156 19 -162 3z m-215 -340
c16 -11 22 -25 22 -54 0 -29 -6 -43 -22 -54 -49 -35 -111 -4 -111 54 0 58 62
89 111 54z"/>
</g>
</svg>
